# xmcd CD database file
#
# Track frame offsets:
#	150
#	16040
#	32410
#	48122
#	67576
#	85634
#	101051
#	119646
#	137393
#	155303
#	171056
#	184601
#	204186
#
# Disc length: 2970 seconds
#
# Revision: 0
# Processed by: cddbd v1.5.1PL0 Copyright (c) Steve Scherf et al.
# Submitted via: CDex 1.51
#
DISCID=8c0b980d
DTITLE=Romney Getty - Fill In Your Gray
DYEAR=2003
DGENRE=Country
TTITLE0=Roll On
TTITLE1=Waiting For The Day
TTITLE2=You Got To Know
TTITLE3=Cryin' The Blues
TTITLE4=Someone To Somebody
TTITLE5=There'll Be Change
TTITLE6=No Difference
TTITLE7=Leave Tomorrow
TTITLE8=She's Gone
TTITLE9=Aint No Mistake
TTITLE10=Delta Dirty
TTITLE11=Road To Nowhere
TTITLE12=Goin' To Texas
EXTD=YEAR: 2003
EXTT0=
EXTT1=
EXTT2=
EXTT3=
EXTT4=
EXTT5=
EXTT6=
EXTT7=
EXTT8=
EXTT9=
EXTT10=
EXTT11=
EXTT12=
PLAYORDER=
